<?xml version="1.0" encoding="UTF-8" standalone="no"?>
<!DOCTYPE svg PUBLIC "-//W3C//DTD SVG 1.1//EN"
 "http://www.w3.org/Graphics/SVG/1.1/DTD/svg11.dtd">
<!-- Generated by graphviz version 2.38.0 (20140413.2041)
 -->
<!-- Title: %3 Pages: 1 -->
<svg width="527pt" height="1261pt"
 viewBox="0.00 0.00 526.79 1260.84" xmlns="http://www.w3.org/2000/svg" xmlns:xlink="http://www.w3.org/1999/xlink">
<g id="graph0" class="graph" transform="scale(1 1) rotate(0) translate(4 1256.84)">
<title>%3</title>
<polygon fill="white" stroke="none" points="-4,4 -4,-1256.84 522.794,-1256.84 522.794,4 -4,4"/>
<!-- &#45;7703705055871862102 -->
<g id="node1" class="node"><title>&#45;7703705055871862102</title>
<ellipse fill="none" stroke="black" cx="58.3968" cy="-368.736" rx="24.0958" ry="24.0958"/>
<text text-anchor="middle" x="58.3968" y="-365.036" font-family="Times New Roman,serif" font-size="14.00">mul</text>
</g>
<!-- &#45;4983774096953277389 -->
<g id="node2" class="node"><title>&#45;4983774096953277389</title>
<polygon fill="none" stroke="black" points="85.3968,-464.784 31.3968,-464.784 31.3968,-428.784 85.3968,-428.784 85.3968,-464.784"/>
<text text-anchor="middle" x="58.3968" y="-443.084" font-family="Times New Roman,serif" font-size="14.00">(0, 0)</text>
</g>
<!-- &#45;7703705055871862102&#45;&gt;&#45;4983774096953277389 -->
<g id="edge1" class="edge"><title>&#45;7703705055871862102&#45;&gt;&#45;4983774096953277389</title>
<path fill="none" stroke="black" d="M58.3968,-392.967C58.3968,-401.075 58.3968,-410.246 58.3968,-418.644"/>
<polygon fill="black" stroke="black" points="54.8969,-418.729 58.3968,-428.73 61.8969,-418.73 54.8969,-418.729"/>
</g>
<!-- &#45;6806309104265517721 -->
<g id="node25" class="node"><title>&#45;6806309104265517721</title>
<ellipse fill="none" stroke="black" cx="58.3968" cy="-557.329" rx="56.59" ry="56.59"/>
<text text-anchor="middle" x="58.3968" y="-553.629" font-family="Times New Roman,serif" font-size="14.00">mean_chunk</text>
</g>
<!-- &#45;4983774096953277389&#45;&gt;&#45;6806309104265517721 -->
<g id="edge26" class="edge"><title>&#45;4983774096953277389&#45;&gt;&#45;6806309104265517721</title>
<path fill="none" stroke="black" d="M58.3968,-465.224C58.3968,-472.354 58.3968,-481.089 58.3968,-490.298"/>
<polygon fill="black" stroke="black" points="54.8969,-490.425 58.3968,-500.425 61.8969,-490.425 54.8969,-490.425"/>
</g>
<!-- &#45;6407002015367910782 -->
<g id="node3" class="node"><title>&#45;6407002015367910782</title>
<polygon fill="none" stroke="black" points="72.3968,-308.689 18.3968,-308.689 18.3968,-272.689 72.3968,-272.689 72.3968,-308.689"/>
<text text-anchor="middle" x="45.3968" y="-286.989" font-family="Times New Roman,serif" font-size="14.00">(0, 0)</text>
</g>
<!-- &#45;6407002015367910782&#45;&gt;&#45;7703705055871862102 -->
<g id="edge2" class="edge"><title>&#45;6407002015367910782&#45;&gt;&#45;7703705055871862102</title>
<path fill="none" stroke="black" d="M48.3467,-308.945C49.6497,-316.567 51.2273,-325.796 52.7425,-334.66"/>
<polygon fill="black" stroke="black" points="49.3373,-335.512 54.4724,-344.779 56.2372,-334.333 49.3373,-335.512"/>
</g>
<!-- &#45;7712076792075984724 -->
<g id="node4" class="node"><title>&#45;7712076792075984724</title>
<polygon fill="none" stroke="black" points="190.397,-127.895 136.397,-127.895 136.397,-91.895 190.397,-91.895 190.397,-127.895"/>
<text text-anchor="middle" x="163.397" y="-106.195" font-family="Times New Roman,serif" font-size="14.00">(0, 0)</text>
</g>
<!-- &#45;7712076792075984724&#45;&gt;&#45;7703705055871862102 -->
<g id="edge3" class="edge"><title>&#45;7712076792075984724&#45;&gt;&#45;7703705055871862102</title>
<path fill="none" stroke="black" d="M156.344,-128.146C138.856,-170.923 93.3027,-282.353 71.029,-336.837"/>
<polygon fill="black" stroke="black" points="67.6974,-335.737 67.153,-346.318 74.1769,-338.386 67.6974,-335.737"/>
</g>
<!-- &#45;3287262061806280042 -->
<g id="node21" class="node"><title>&#45;3287262061806280042</title>
<ellipse fill="none" stroke="black" cx="202.397" cy="-200.292" rx="36.2938" ry="36.2938"/>
<text text-anchor="middle" x="202.397" y="-196.592" font-family="Times New Roman,serif" font-size="14.00">getitem</text>
</g>
<!-- &#45;7712076792075984724&#45;&gt;&#45;3287262061806280042 -->
<g id="edge18" class="edge"><title>&#45;7712076792075984724&#45;&gt;&#45;3287262061806280042</title>
<path fill="none" stroke="black" d="M170.916,-127.939C174.611,-136.313 179.242,-146.809 183.806,-157.155"/>
<polygon fill="black" stroke="black" points="180.712,-158.812 187.951,-166.549 187.116,-155.987 180.712,-158.812"/>
</g>
<!-- 5619746047746507273 -->
<g id="node5" class="node"><title>5619746047746507273</title>
<ellipse fill="none" stroke="black" cx="320.397" cy="-368.736" rx="24.0958" ry="24.0958"/>
<text text-anchor="middle" x="320.397" y="-365.036" font-family="Times New Roman,serif" font-size="14.00">mul</text>
</g>
<!-- &#45;4983774096952112340 -->
<g id="node6" class="node"><title>&#45;4983774096952112340</title>
<polygon fill="none" stroke="black" points="347.397,-464.784 293.397,-464.784 293.397,-428.784 347.397,-428.784 347.397,-464.784"/>
<text text-anchor="middle" x="320.397" y="-443.084" font-family="Times New Roman,serif" font-size="14.00">(0, 1)</text>
</g>
<!-- 5619746047746507273&#45;&gt;&#45;4983774096952112340 -->
<g id="edge4" class="edge"><title>5619746047746507273&#45;&gt;&#45;4983774096952112340</title>
<path fill="none" stroke="black" d="M320.397,-392.967C320.397,-401.075 320.397,-410.246 320.397,-418.644"/>
<polygon fill="black" stroke="black" points="316.897,-418.729 320.397,-428.73 323.897,-418.73 316.897,-418.729"/>
</g>
<!-- &#45;8818312539621239096 -->
<g id="node27" class="node"><title>&#45;8818312539621239096</title>
<ellipse fill="none" stroke="black" cx="320.397" cy="-557.329" rx="56.59" ry="56.59"/>
<text text-anchor="middle" x="320.397" y="-553.629" font-family="Times New Roman,serif" font-size="14.00">mean_chunk</text>
</g>
<!-- &#45;4983774096952112340&#45;&gt;&#45;8818312539621239096 -->
<g id="edge28" class="edge"><title>&#45;4983774096952112340&#45;&gt;&#45;8818312539621239096</title>
<path fill="none" stroke="black" d="M320.397,-465.224C320.397,-472.354 320.397,-481.089 320.397,-490.298"/>
<polygon fill="black" stroke="black" points="316.897,-490.425 320.397,-500.425 323.897,-490.425 316.897,-490.425"/>
</g>
<!-- &#45;6407002015369075831 -->
<g id="node7" class="node"><title>&#45;6407002015369075831</title>
<polygon fill="none" stroke="black" points="345.397,-308.689 291.397,-308.689 291.397,-272.689 345.397,-272.689 345.397,-308.689"/>
<text text-anchor="middle" x="318.397" y="-286.989" font-family="Times New Roman,serif" font-size="14.00">(0, 1)</text>
</g>
<!-- &#45;6407002015369075831&#45;&gt;5619746047746507273 -->
<g id="edge5" class="edge"><title>&#45;6407002015369075831&#45;&gt;5619746047746507273</title>
<path fill="none" stroke="black" d="M318.851,-308.945C319.049,-316.504 319.29,-325.644 319.521,-334.44"/>
<polygon fill="black" stroke="black" points="316.024,-334.589 319.785,-344.493 323.021,-334.405 316.024,-334.589"/>
</g>
<!-- &#45;7712076792077149773 -->
<g id="node8" class="node"><title>&#45;7712076792077149773</title>
<polygon fill="none" stroke="black" points="463.397,-127.895 409.397,-127.895 409.397,-91.895 463.397,-91.895 463.397,-127.895"/>
<text text-anchor="middle" x="436.397" y="-106.195" font-family="Times New Roman,serif" font-size="14.00">(0, 1)</text>
</g>
<!-- &#45;7712076792077149773&#45;&gt;5619746047746507273 -->
<g id="edge6" class="edge"><title>&#45;7712076792077149773&#45;&gt;5619746047746507273</title>
<path fill="none" stroke="black" d="M430.104,-128.158C417.24,-162.937 386.43,-243.663 354.397,-308.689 349.405,-318.821 343.407,-329.61 337.848,-339.155"/>
<polygon fill="black" stroke="black" points="334.776,-337.475 332.7,-347.864 340.801,-341.037 334.776,-337.475"/>
</g>
<!-- 8859589545668546133 -->
<g id="node22" class="node"><title>8859589545668546133</title>
<ellipse fill="none" stroke="black" cx="482.397" cy="-200.292" rx="36.2938" ry="36.2938"/>
<text text-anchor="middle" x="482.397" y="-196.592" font-family="Times New Roman,serif" font-size="14.00">getitem</text>
</g>
<!-- &#45;7712076792077149773&#45;&gt;8859589545668546133 -->
<g id="edge20" class="edge"><title>&#45;7712076792077149773&#45;&gt;8859589545668546133</title>
<path fill="none" stroke="black" d="M445.266,-127.939C449.835,-136.719 455.618,-147.832 461.252,-158.659"/>
<polygon fill="black" stroke="black" points="458.199,-160.373 465.92,-167.628 464.408,-157.142 458.199,-160.373"/>
</g>
<!-- 7016676258676957748 -->
<g id="node9" class="node"><title>7016676258676957748</title>
<ellipse fill="none" stroke="black" cx="451.397" cy="-368.736" rx="24.0958" ry="24.0958"/>
<text text-anchor="middle" x="451.397" y="-365.036" font-family="Times New Roman,serif" font-size="14.00">mul</text>
</g>
<!-- &#45;4983774096950947291 -->
<g id="node10" class="node"><title>&#45;4983774096950947291</title>
<polygon fill="none" stroke="black" points="478.397,-464.784 424.397,-464.784 424.397,-428.784 478.397,-428.784 478.397,-464.784"/>
<text text-anchor="middle" x="451.397" y="-443.084" font-family="Times New Roman,serif" font-size="14.00">(0, 2)</text>
</g>
<!-- 7016676258676957748&#45;&gt;&#45;4983774096950947291 -->
<g id="edge7" class="edge"><title>7016676258676957748&#45;&gt;&#45;4983774096950947291</title>
<path fill="none" stroke="black" d="M451.397,-392.967C451.397,-401.075 451.397,-410.246 451.397,-418.644"/>
<polygon fill="black" stroke="black" points="447.897,-418.729 451.397,-428.73 454.897,-418.73 447.897,-418.729"/>
</g>
<!-- &#45;1408000289703766371 -->
<g id="node29" class="node"><title>&#45;1408000289703766371</title>
<ellipse fill="none" stroke="black" cx="451.397" cy="-557.329" rx="56.59" ry="56.59"/>
<text text-anchor="middle" x="451.397" y="-553.629" font-family="Times New Roman,serif" font-size="14.00">mean_chunk</text>
</g>
<!-- &#45;4983774096950947291&#45;&gt;&#45;1408000289703766371 -->
<g id="edge30" class="edge"><title>&#45;4983774096950947291&#45;&gt;&#45;1408000289703766371</title>
<path fill="none" stroke="black" d="M451.397,-465.224C451.397,-472.354 451.397,-481.089 451.397,-490.298"/>
<polygon fill="black" stroke="black" points="447.897,-490.425 451.397,-500.425 454.897,-490.425 447.897,-490.425"/>
</g>
<!-- &#45;6407002015370240880 -->
<g id="node11" class="node"><title>&#45;6407002015370240880</title>
<polygon fill="none" stroke="black" points="500.397,-308.689 446.397,-308.689 446.397,-272.689 500.397,-272.689 500.397,-308.689"/>
<text text-anchor="middle" x="473.397" y="-286.989" font-family="Times New Roman,serif" font-size="14.00">(0, 2)</text>
</g>
<!-- &#45;6407002015370240880&#45;&gt;7016676258676957748 -->
<g id="edge8" class="edge"><title>&#45;6407002015370240880&#45;&gt;7016676258676957748</title>
<path fill="none" stroke="black" d="M468.405,-308.945C466.114,-316.862 463.323,-326.511 460.669,-335.685"/>
<polygon fill="black" stroke="black" points="457.29,-334.77 457.873,-345.349 464.015,-336.715 457.29,-334.77"/>
</g>
<!-- &#45;7712076792073654626 -->
<g id="node12" class="node"><title>&#45;7712076792073654626</title>
<polygon fill="none" stroke="black" points="366.397,-127.895 312.397,-127.895 312.397,-91.895 366.397,-91.895 366.397,-127.895"/>
<text text-anchor="middle" x="339.397" y="-106.195" font-family="Times New Roman,serif" font-size="14.00">(0, 2)</text>
</g>
<!-- &#45;7712076792073654626&#45;&gt;7016676258676957748 -->
<g id="edge9" class="edge"><title>&#45;7712076792073654626&#45;&gt;7016676258676957748</title>
<path fill="none" stroke="black" d="M346.919,-128.146C365.573,-170.923 414.164,-282.353 437.922,-336.837"/>
<polygon fill="black" stroke="black" points="434.851,-338.55 442.057,-346.318 441.268,-335.752 434.851,-338.55"/>
</g>
<!-- 8420232949109639808 -->
<g id="node23" class="node"><title>8420232949109639808</title>
<ellipse fill="none" stroke="black" cx="316.397" cy="-200.292" rx="36.2938" ry="36.2938"/>
<text text-anchor="middle" x="316.397" y="-196.592" font-family="Times New Roman,serif" font-size="14.00">getitem</text>
</g>
<!-- &#45;7712076792073654626&#45;&gt;8420232949109639808 -->
<g id="edge22" class="edge"><title>&#45;7712076792073654626&#45;&gt;8420232949109639808</title>
<path fill="none" stroke="black" d="M334.962,-127.939C332.947,-135.684 330.459,-145.245 327.967,-154.823"/>
<polygon fill="black" stroke="black" points="324.519,-154.176 325.388,-164.736 331.293,-155.939 324.519,-154.176"/>
</g>
<!-- &#45;1014171053334810877 -->
<g id="node13" class="node"><title>&#45;1014171053334810877</title>
<ellipse fill="none" stroke="black" cx="189.397" cy="-368.736" rx="24.0958" ry="24.0958"/>
<text text-anchor="middle" x="189.397" y="-365.036" font-family="Times New Roman,serif" font-size="14.00">mul</text>
</g>
<!-- &#45;4983774096949782242 -->
<g id="node14" class="node"><title>&#45;4983774096949782242</title>
<polygon fill="none" stroke="black" points="216.397,-464.784 162.397,-464.784 162.397,-428.784 216.397,-428.784 216.397,-464.784"/>
<text text-anchor="middle" x="189.397" y="-443.084" font-family="Times New Roman,serif" font-size="14.00">(0, 3)</text>
</g>
<!-- &#45;1014171053334810877&#45;&gt;&#45;4983774096949782242 -->
<g id="edge10" class="edge"><title>&#45;1014171053334810877&#45;&gt;&#45;4983774096949782242</title>
<path fill="none" stroke="black" d="M189.397,-392.967C189.397,-401.075 189.397,-410.246 189.397,-418.644"/>
<polygon fill="black" stroke="black" points="185.897,-418.729 189.397,-428.73 192.897,-418.73 185.897,-418.729"/>
</g>
<!-- &#45;1021808436372883746 -->
<g id="node31" class="node"><title>&#45;1021808436372883746</title>
<ellipse fill="none" stroke="black" cx="189.397" cy="-557.329" rx="56.59" ry="56.59"/>
<text text-anchor="middle" x="189.397" y="-553.629" font-family="Times New Roman,serif" font-size="14.00">mean_chunk</text>
</g>
<!-- &#45;4983774096949782242&#45;&gt;&#45;1021808436372883746 -->
<g id="edge32" class="edge"><title>&#45;4983774096949782242&#45;&gt;&#45;1021808436372883746</title>
<path fill="none" stroke="black" d="M189.397,-465.224C189.397,-472.354 189.397,-481.089 189.397,-490.298"/>
<polygon fill="black" stroke="black" points="185.897,-490.425 189.397,-500.425 192.897,-490.425 185.897,-490.425"/>
</g>
<!-- &#45;7712076792074819675 -->
<g id="node15" class="node"><title>&#45;7712076792074819675</title>
<polygon fill="none" stroke="black" points="102.397,-127.895 48.3968,-127.895 48.3968,-91.895 102.397,-91.895 102.397,-127.895"/>
<text text-anchor="middle" x="75.3968" y="-106.195" font-family="Times New Roman,serif" font-size="14.00">(0, 3)</text>
</g>
<!-- &#45;7712076792074819675&#45;&gt;&#45;1014171053334810877 -->
<g id="edge11" class="edge"><title>&#45;7712076792074819675&#45;&gt;&#45;1014171053334810877</title>
<path fill="none" stroke="black" d="M83.0536,-128.146C102.08,-171.012 151.704,-282.815 175.832,-337.175"/>
<polygon fill="black" stroke="black" points="172.634,-338.598 179.89,-346.318 179.032,-335.758 172.634,-338.598"/>
</g>
<!-- &#45;164608239255266017 -->
<g id="node24" class="node"><title>&#45;164608239255266017</title>
<ellipse fill="none" stroke="black" cx="36.3968" cy="-200.292" rx="36.2938" ry="36.2938"/>
<text text-anchor="middle" x="36.3968" y="-196.592" font-family="Times New Roman,serif" font-size="14.00">getitem</text>
</g>
<!-- &#45;7712076792074819675&#45;&gt;&#45;164608239255266017 -->
<g id="edge24" class="edge"><title>&#45;7712076792074819675&#45;&gt;&#45;164608239255266017</title>
<path fill="none" stroke="black" d="M67.8772,-127.939C64.1828,-136.313 59.5516,-146.809 54.9871,-157.155"/>
<polygon fill="black" stroke="black" points="51.6771,-155.987 50.8427,-166.549 58.0815,-158.812 51.6771,-155.987"/>
</g>
<!-- &#45;6407002015371405929 -->
<g id="node16" class="node"><title>&#45;6407002015371405929</title>
<polygon fill="none" stroke="black" points="227.397,-308.689 173.397,-308.689 173.397,-272.689 227.397,-272.689 227.397,-308.689"/>
<text text-anchor="middle" x="200.397" y="-286.989" font-family="Times New Roman,serif" font-size="14.00">(0, 3)</text>
</g>
<!-- &#45;6407002015371405929&#45;&gt;&#45;1014171053334810877 -->
<g id="edge12" class="edge"><title>&#45;6407002015371405929&#45;&gt;&#45;1014171053334810877</title>
<path fill="none" stroke="black" d="M197.901,-308.945C196.798,-316.567 195.463,-325.796 194.181,-334.66"/>
<polygon fill="black" stroke="black" points="190.685,-334.381 192.717,-344.779 197.613,-335.383 190.685,-334.381"/>
</g>
<!-- 8618692129001952393 -->
<g id="node17" class="node"><title>8618692129001952393</title>
<ellipse fill="none" stroke="black" cx="163.397" cy="-27.9475" rx="27.8951" ry="27.8951"/>
<text text-anchor="middle" x="163.397" y="-24.2475" font-family="Times New Roman,serif" font-size="14.00">ones</text>
</g>
<!-- 8618692129001952393&#45;&gt;&#45;7712076792075984724 -->
<g id="edge13" class="edge"><title>8618692129001952393&#45;&gt;&#45;7712076792075984724</title>
<path fill="none" stroke="black" d="M163.397,-56.0141C163.397,-64.2034 163.397,-73.2024 163.397,-81.4182"/>
<polygon fill="black" stroke="black" points="159.897,-81.6337 163.397,-91.6338 166.897,-81.6338 159.897,-81.6337"/>
</g>
<!-- &#45;1806153885455619798 -->
<g id="node18" class="node"><title>&#45;1806153885455619798</title>
<ellipse fill="none" stroke="black" cx="436.397" cy="-27.9475" rx="27.8951" ry="27.8951"/>
<text text-anchor="middle" x="436.397" y="-24.2475" font-family="Times New Roman,serif" font-size="14.00">ones</text>
</g>
<!-- &#45;1806153885455619798&#45;&gt;&#45;7712076792077149773 -->
<g id="edge14" class="edge"><title>&#45;1806153885455619798&#45;&gt;&#45;7712076792077149773</title>
<path fill="none" stroke="black" d="M436.397,-56.0141C436.397,-64.2034 436.397,-73.2024 436.397,-81.4182"/>
<polygon fill="black" stroke="black" points="432.897,-81.6337 436.397,-91.6338 439.897,-81.6338 432.897,-81.6337"/>
</g>
<!-- 25477412434749827 -->
<g id="node19" class="node"><title>25477412434749827</title>
<ellipse fill="none" stroke="black" cx="339.397" cy="-27.9475" rx="27.8951" ry="27.8951"/>
<text text-anchor="middle" x="339.397" y="-24.2475" font-family="Times New Roman,serif" font-size="14.00">ones</text>
</g>
<!-- 25477412434749827&#45;&gt;&#45;7712076792073654626 -->
<g id="edge15" class="edge"><title>25477412434749827&#45;&gt;&#45;7712076792073654626</title>
<path fill="none" stroke="black" d="M339.397,-56.0141C339.397,-64.2034 339.397,-73.2024 339.397,-81.4182"/>
<polygon fill="black" stroke="black" points="335.897,-81.6337 339.397,-91.6338 342.897,-81.6338 335.897,-81.6337"/>
</g>
<!-- 7614287708065241268 -->
<g id="node20" class="node"><title>7614287708065241268</title>
<ellipse fill="none" stroke="black" cx="75.3968" cy="-27.9475" rx="27.8951" ry="27.8951"/>
<text text-anchor="middle" x="75.3968" y="-24.2475" font-family="Times New Roman,serif" font-size="14.00">ones</text>
</g>
<!-- 7614287708065241268&#45;&gt;&#45;7712076792074819675 -->
<g id="edge16" class="edge"><title>7614287708065241268&#45;&gt;&#45;7712076792074819675</title>
<path fill="none" stroke="black" d="M75.3968,-56.0141C75.3968,-64.2034 75.3968,-73.2024 75.3968,-81.4182"/>
<polygon fill="black" stroke="black" points="71.8969,-81.6337 75.3968,-91.6338 78.8969,-81.6338 71.8969,-81.6337"/>
</g>
<!-- &#45;3287262061806280042&#45;&gt;&#45;6407002015371405929 -->
<g id="edge17" class="edge"><title>&#45;3287262061806280042&#45;&gt;&#45;6407002015371405929</title>
<path fill="none" stroke="black" d="M201.595,-236.737C201.401,-245.287 201.198,-254.292 201.014,-262.402"/>
<polygon fill="black" stroke="black" points="197.514,-262.358 200.787,-272.435 204.513,-262.517 197.514,-262.358"/>
</g>
<!-- 8859589545668546133&#45;&gt;&#45;6407002015370240880 -->
<g id="edge19" class="edge"><title>8859589545668546133&#45;&gt;&#45;6407002015370240880</title>
<path fill="none" stroke="black" d="M478.788,-236.737C477.917,-245.287 477.001,-254.292 476.175,-262.402"/>
<polygon fill="black" stroke="black" points="472.684,-262.132 475.153,-272.435 479.648,-262.841 472.684,-262.132"/>
</g>
<!-- 8420232949109639808&#45;&gt;&#45;6407002015369075831 -->
<g id="edge21" class="edge"><title>8420232949109639808&#45;&gt;&#45;6407002015369075831</title>
<path fill="none" stroke="black" d="M317.199,-236.737C317.392,-245.287 317.596,-254.292 317.779,-262.402"/>
<polygon fill="black" stroke="black" points="314.281,-262.517 318.006,-272.435 321.279,-262.358 314.281,-262.517"/>
</g>
<!-- &#45;164608239255266017&#45;&gt;&#45;6407002015367910782 -->
<g id="edge23" class="edge"><title>&#45;164608239255266017&#45;&gt;&#45;6407002015367910782</title>
<path fill="none" stroke="black" d="M40.0056,-236.737C40.876,-245.287 41.7929,-254.292 42.6186,-262.402"/>
<polygon fill="black" stroke="black" points="39.1451,-262.841 43.6401,-272.435 46.1091,-262.132 39.1451,-262.841"/>
</g>
<!-- 6714360575068349242 -->
<g id="node26" class="node"><title>6714360575068349242</title>
<polygon fill="none" stroke="black" points="173.397,-685.874 119.397,-685.874 119.397,-649.874 173.397,-649.874 173.397,-685.874"/>
<text text-anchor="middle" x="146.397" y="-664.174" font-family="Times New Roman,serif" font-size="14.00">(0, 0)</text>
</g>
<!-- &#45;6806309104265517721&#45;&gt;6714360575068349242 -->
<g id="edge25" class="edge"><title>&#45;6806309104265517721&#45;&gt;6714360575068349242</title>
<path fill="none" stroke="black" d="M93.6827,-601.853C104.61,-615.332 116.285,-629.732 125.863,-641.546"/>
<polygon fill="black" stroke="black" points="123.409,-644.078 132.426,-649.641 128.847,-639.669 123.409,-644.078"/>
</g>
<!-- &#45;5460566021864001853 -->
<g id="node33" class="node"><title>&#45;5460566021864001853</title>
<ellipse fill="none" stroke="black" cx="186.397" cy="-812.866" rx="90.9839" ry="90.9839"/>
<text text-anchor="middle" x="186.397" y="-809.166" font-family="Times New Roman,serif" font-size="14.00">mean_combine&#45;partial</text>
</g>
<!-- 6714360575068349242&#45;&gt;&#45;5460566021864001853 -->
<g id="edge35" class="edge"><title>6714360575068349242&#45;&gt;&#45;5460566021864001853</title>
<path fill="none" stroke="black" d="M151.222,-686.122C153.44,-694.051 156.261,-704.138 159.339,-715.14"/>
<polygon fill="black" stroke="black" points="156.036,-716.324 162.1,-725.012 162.777,-714.439 156.036,-716.324"/>
</g>
<!-- 6714360575067184193 -->
<g id="node28" class="node"><title>6714360575067184193</title>
<polygon fill="none" stroke="black" points="273.397,-685.874 219.397,-685.874 219.397,-649.874 273.397,-649.874 273.397,-685.874"/>
<text text-anchor="middle" x="246.397" y="-664.174" font-family="Times New Roman,serif" font-size="14.00">(0, 1)</text>
</g>
<!-- &#45;8818312539621239096&#45;&gt;6714360575067184193 -->
<g id="edge27" class="edge"><title>&#45;8818312539621239096&#45;&gt;6714360575067184193</title>
<path fill="none" stroke="black" d="M288.799,-604.677C280.182,-617.317 271.166,-630.543 263.674,-641.532"/>
<polygon fill="black" stroke="black" points="260.77,-639.578 258.029,-649.812 266.553,-643.521 260.77,-639.578"/>
</g>
<!-- 6714360575067184193&#45;&gt;&#45;5460566021864001853 -->
<g id="edge34" class="edge"><title>6714360575067184193&#45;&gt;&#45;5460566021864001853</title>
<path fill="none" stroke="black" d="M239.159,-686.122C235.422,-695.029 230.542,-706.659 225.259,-719.25"/>
<polygon fill="black" stroke="black" points="221.993,-717.987 221.352,-728.562 228.448,-720.695 221.993,-717.987"/>
</g>
<!-- 6714360575066019144 -->
<g id="node30" class="node"><title>6714360575066019144</title>
<polygon fill="none" stroke="black" points="454.397,-685.874 400.397,-685.874 400.397,-649.874 454.397,-649.874 454.397,-685.874"/>
<text text-anchor="middle" x="427.397" y="-664.174" font-family="Times New Roman,serif" font-size="14.00">(0, 2)</text>
</g>
<!-- &#45;1408000289703766371&#45;&gt;6714360575066019144 -->
<g id="edge29" class="edge"><title>&#45;1408000289703766371&#45;&gt;6714360575066019144</title>
<path fill="none" stroke="black" d="M439.397,-612.602C437.32,-621.993 435.244,-631.384 433.416,-639.65"/>
<polygon fill="black" stroke="black" points="429.994,-638.915 431.253,-649.435 436.829,-640.426 429.994,-638.915"/>
</g>
<!-- &#45;6798742492899094028 -->
<g id="node35" class="node"><title>&#45;6798742492899094028</title>
<ellipse fill="none" stroke="black" cx="386.397" cy="-812.866" rx="90.9839" ry="90.9839"/>
<text text-anchor="middle" x="386.397" y="-809.166" font-family="Times New Roman,serif" font-size="14.00">mean_combine&#45;partial</text>
</g>
<!-- 6714360575066019144&#45;&gt;&#45;6798742492899094028 -->
<g id="edge37" class="edge"><title>6714360575066019144&#45;&gt;&#45;6798742492899094028</title>
<path fill="none" stroke="black" d="M422.451,-686.122C420.178,-694.051 417.286,-704.138 414.131,-715.14"/>
<polygon fill="black" stroke="black" points="410.692,-714.434 411.301,-725.012 417.421,-716.364 410.692,-714.434"/>
</g>
<!-- 6714360575064854095 -->
<g id="node32" class="node"><title>6714360575064854095</title>
<polygon fill="none" stroke="black" points="359.397,-685.874 305.397,-685.874 305.397,-649.874 359.397,-649.874 359.397,-685.874"/>
<text text-anchor="middle" x="332.397" y="-664.174" font-family="Times New Roman,serif" font-size="14.00">(0, 3)</text>
</g>
<!-- &#45;1021808436372883746&#45;&gt;6714360575064854095 -->
<g id="edge31" class="edge"><title>&#45;1021808436372883746&#45;&gt;6714360575064854095</title>
<path fill="none" stroke="black" d="M231.497,-595.468C239.007,-601.756 246.845,-608.11 254.397,-613.874 267.955,-624.223 283.395,-634.927 296.941,-643.982"/>
<polygon fill="black" stroke="black" points="295.261,-647.067 305.53,-649.674 299.128,-641.232 295.261,-647.067"/>
</g>
<!-- 6714360575064854095&#45;&gt;&#45;6798742492899094028 -->
<g id="edge38" class="edge"><title>6714360575064854095&#45;&gt;&#45;6798742492899094028</title>
<path fill="none" stroke="black" d="M338.91,-686.122C342.174,-694.764 346.406,-705.972 350.999,-718.132"/>
<polygon fill="black" stroke="black" points="347.763,-719.472 354.571,-727.591 354.312,-716.999 347.763,-719.472"/>
</g>
<!-- &#45;7843313359857464354 -->
<g id="node34" class="node"><title>&#45;7843313359857464354</title>
<polygon fill="none" stroke="black" points="277.397,-975.858 223.397,-975.858 223.397,-939.858 277.397,-939.858 277.397,-975.858"/>
<text text-anchor="middle" x="250.397" y="-954.158" font-family="Times New Roman,serif" font-size="14.00">(0, 0)</text>
</g>
<!-- &#45;5460566021864001853&#45;&gt;&#45;7843313359857464354 -->
<g id="edge33" class="edge"><title>&#45;5460566021864001853&#45;&gt;&#45;7843313359857464354</title>
<path fill="none" stroke="black" d="M223.255,-896.217C228.798,-908.602 234.143,-920.542 238.601,-930.504"/>
<polygon fill="black" stroke="black" points="235.46,-932.052 242.739,-939.75 241.849,-929.192 235.46,-932.052"/>
</g>
<!-- 351082676035207193 -->
<g id="node37" class="node"><title>351082676035207193</title>
<ellipse fill="none" stroke="black" cx="302.397" cy="-1096.35" rx="84.485" ry="84.485"/>
<text text-anchor="middle" x="302.397" y="-1092.65" font-family="Times New Roman,serif" font-size="14.00">mean_agg&#45;aggregate</text>
</g>
<!-- &#45;7843313359857464354&#45;&gt;351082676035207193 -->
<g id="edge41" class="edge"><title>&#45;7843313359857464354&#45;&gt;351082676035207193</title>
<path fill="none" stroke="black" d="M256.877,-975.869C260.153,-984.468 264.404,-995.625 268.99,-1007.66"/>
<polygon fill="black" stroke="black" points="265.72,-1008.91 272.551,-1017.01 272.262,-1006.42 265.72,-1008.91"/>
</g>
<!-- &#45;7843313359858629403 -->
<g id="node36" class="node"><title>&#45;7843313359858629403</title>
<polygon fill="none" stroke="black" points="381.397,-975.858 327.397,-975.858 327.397,-939.858 381.397,-939.858 381.397,-975.858"/>
<text text-anchor="middle" x="354.397" y="-954.158" font-family="Times New Roman,serif" font-size="14.00">(0, 1)</text>
</g>
<!-- &#45;6798742492899094028&#45;&gt;&#45;7843313359858629403 -->
<g id="edge36" class="edge"><title>&#45;6798742492899094028&#45;&gt;&#45;7843313359858629403</title>
<path fill="none" stroke="black" d="M366.677,-901.983C364.459,-911.893 362.343,-921.352 360.51,-929.541"/>
<polygon fill="black" stroke="black" points="357.049,-928.98 358.281,-939.503 363.88,-930.509 357.049,-928.98"/>
</g>
<!-- &#45;7843313359858629403&#45;&gt;351082676035207193 -->
<g id="edge40" class="edge"><title>&#45;7843313359858629403&#45;&gt;351082676035207193</title>
<path fill="none" stroke="black" d="M347.916,-975.869C344.64,-984.468 340.39,-995.625 335.804,-1007.66"/>
<polygon fill="black" stroke="black" points="332.532,-1006.42 332.242,-1017.01 339.073,-1008.91 332.532,-1006.42"/>
</g>
<!-- &#45;7197631513191810532 -->
<g id="node38" class="node"><title>&#45;7197631513191810532</title>
<polygon fill="none" stroke="black" points="329.397,-1252.84 275.397,-1252.84 275.397,-1216.84 329.397,-1216.84 329.397,-1252.84"/>
<text text-anchor="middle" x="302.397" y="-1231.14" font-family="Times New Roman,serif" font-size="14.00">()</text>
</g>
<!-- 351082676035207193&#45;&gt;&#45;7197631513191810532 -->
<g id="edge39" class="edge"><title>351082676035207193&#45;&gt;&#45;7197631513191810532</title>
<path fill="none" stroke="black" d="M302.397,-1181.07C302.397,-1190.22 302.397,-1198.98 302.397,-1206.64"/>
<polygon fill="black" stroke="black" points="298.897,-1206.67 302.397,-1216.67 305.897,-1206.67 298.897,-1206.67"/>
</g>
</g>
</svg>
