<?xml version="1.0" encoding="UTF-8" standalone="no"?>
<!DOCTYPE svg PUBLIC "-//W3C//DTD SVG 1.1//EN"
 "http://www.w3.org/Graphics/SVG/1.1/DTD/svg11.dtd">
<!-- Generated by graphviz version 2.48.0 (0)
 -->
<!-- Pages: 1 -->
<svg width="575pt" height="1335pt"
 viewBox="0.00 0.00 574.59 1334.94" xmlns="http://www.w3.org/2000/svg" xmlns:xlink="http://www.w3.org/1999/xlink">
<g id="graph0" class="graph" transform="scale(1 1) rotate(0) translate(4 1330.94)">
<polygon fill="white" stroke="transparent" points="-4,4 -4,-1330.94 570.59,-1330.94 570.59,4 -4,4"/>
<!-- &#45;3374665366033093377 -->
<g id="node1" class="node">
<title>&#45;3374665366033093377</title>
<ellipse fill="none" stroke="black" cx="63.04" cy="-383.04" rx="25.2" ry="25.2"/>
<text text-anchor="middle" x="63.04" y="-379.34" font-family="Helvetica,sans-Serif" font-size="14.00">mul</text>
</g>
<!-- &#45;7063918262711081275 -->
<g id="node2" class="node">
<title>&#45;7063918262711081275</title>
<polygon fill="none" stroke="black" points="90.04,-480.38 36.04,-480.38 36.04,-444.38 90.04,-444.38 90.04,-480.38"/>
<text text-anchor="middle" x="63.04" y="-458.68" font-family="Helvetica,sans-Serif" font-size="14.00">(0, 0)</text>
</g>
<!-- &#45;3374665366033093377&#45;&gt;&#45;7063918262711081275 -->
<g id="edge1" class="edge">
<title>&#45;3374665366033093377&#45;&gt;&#45;7063918262711081275</title>
<path fill="none" stroke="black" d="M63.04,-408.51C63.04,-416.51 63.04,-425.45 63.04,-433.67"/>
<polygon fill="black" stroke="black" points="59.54,-433.93 63.04,-443.93 66.54,-433.93 59.54,-433.93"/>
</g>
<!-- &#45;8830480489076735305 -->
<g id="node25" class="node">
<title>&#45;8830480489076735305</title>
<ellipse fill="none" stroke="black" cx="63.04" cy="-579.43" rx="63.09" ry="63.09"/>
<text text-anchor="middle" x="63.04" y="-575.73" font-family="Helvetica,sans-Serif" font-size="14.00">mean_chunk</text>
</g>
<!-- &#45;7063918262711081275&#45;&gt;&#45;8830480489076735305 -->
<g id="edge26" class="edge">
<title>&#45;7063918262711081275&#45;&gt;&#45;8830480489076735305</title>
<path fill="none" stroke="black" d="M63.04,-480.86C63.04,-487.96 63.04,-496.69 63.04,-505.98"/>
<polygon fill="black" stroke="black" points="59.54,-506.23 63.04,-516.23 66.54,-506.23 59.54,-506.23"/>
</g>
<!-- 3147867637364691440 -->
<g id="node3" class="node">
<title>3147867637364691440</title>
<polygon fill="none" stroke="black" points="106.04,-133.09 52.04,-133.09 52.04,-97.09 106.04,-97.09 106.04,-133.09"/>
<text text-anchor="middle" x="79.04" y="-111.39" font-family="Helvetica,sans-Serif" font-size="14.00">(0, 0)</text>
</g>
<!-- 3147867637364691440&#45;&gt;&#45;3374665366033093377 -->
<g id="edge2" class="edge">
<title>3147867637364691440&#45;&gt;&#45;3374665366033093377</title>
<path fill="none" stroke="black" d="M72.83,-133.5C69.51,-143.72 65.76,-156.97 64.04,-169.09 55.23,-231.53 57.72,-305.28 60.36,-347.56"/>
<polygon fill="black" stroke="black" points="56.87,-347.86 61.03,-357.61 63.85,-347.4 56.87,-347.86"/>
</g>
<!-- 3170734545744528279 -->
<g id="node21" class="node">
<title>3170734545744528279</title>
<ellipse fill="none" stroke="black" cx="113.04" cy="-209.39" rx="40.09" ry="40.09"/>
<text text-anchor="middle" x="113.04" y="-205.69" font-family="Helvetica,sans-Serif" font-size="14.00">getitem</text>
</g>
<!-- 3147867637364691440&#45;&gt;3170734545744528279 -->
<g id="edge18" class="edge">
<title>3147867637364691440&#45;&gt;3170734545744528279</title>
<path fill="none" stroke="black" d="M85.44,-133.45C88.41,-141.53 92.11,-151.56 95.82,-161.63"/>
<polygon fill="black" stroke="black" points="92.61,-163.06 99.35,-171.23 99.18,-160.64 92.61,-163.06"/>
</g>
<!-- &#45;6902282527574091924 -->
<g id="node4" class="node">
<title>&#45;6902282527574091924</title>
<polygon fill="none" stroke="black" points="141.04,-321.69 87.04,-321.69 87.04,-285.69 141.04,-285.69 141.04,-321.69"/>
<text text-anchor="middle" x="114.04" y="-299.99" font-family="Helvetica,sans-Serif" font-size="14.00">(0, 0)</text>
</g>
<!-- &#45;6902282527574091924&#45;&gt;&#45;3374665366033093377 -->
<g id="edge3" class="edge">
<title>&#45;6902282527574091924&#45;&gt;&#45;3374665366033093377</title>
<path fill="none" stroke="black" d="M102.73,-321.85C96.72,-330.96 89.17,-342.41 82.28,-352.86"/>
<polygon fill="black" stroke="black" points="79.27,-351.07 76.69,-361.34 85.12,-354.92 79.27,-351.07"/>
</g>
<!-- &#45;4178792271181666419 -->
<g id="node5" class="node">
<title>&#45;4178792271181666419</title>
<ellipse fill="none" stroke="black" cx="351.04" cy="-383.04" rx="25.2" ry="25.2"/>
<text text-anchor="middle" x="351.04" y="-379.34" font-family="Helvetica,sans-Serif" font-size="14.00">mul</text>
</g>
<!-- &#45;556277506609082850 -->
<g id="node6" class="node">
<title>&#45;556277506609082850</title>
<polygon fill="none" stroke="black" points="378.04,-480.38 324.04,-480.38 324.04,-444.38 378.04,-444.38 378.04,-480.38"/>
<text text-anchor="middle" x="351.04" y="-458.68" font-family="Helvetica,sans-Serif" font-size="14.00">(0, 1)</text>
</g>
<!-- &#45;4178792271181666419&#45;&gt;&#45;556277506609082850 -->
<g id="edge4" class="edge">
<title>&#45;4178792271181666419&#45;&gt;&#45;556277506609082850</title>
<path fill="none" stroke="black" d="M351.04,-408.51C351.04,-416.51 351.04,-425.45 351.04,-433.67"/>
<polygon fill="black" stroke="black" points="347.54,-433.93 351.04,-443.93 354.54,-433.93 347.54,-433.93"/>
</g>
<!-- &#45;8302389579401853773 -->
<g id="node27" class="node">
<title>&#45;8302389579401853773</title>
<ellipse fill="none" stroke="black" cx="351.04" cy="-579.43" rx="63.09" ry="63.09"/>
<text text-anchor="middle" x="351.04" y="-575.73" font-family="Helvetica,sans-Serif" font-size="14.00">mean_chunk</text>
</g>
<!-- &#45;556277506609082850&#45;&gt;&#45;8302389579401853773 -->
<g id="edge28" class="edge">
<title>&#45;556277506609082850&#45;&gt;&#45;8302389579401853773</title>
<path fill="none" stroke="black" d="M351.04,-480.86C351.04,-487.96 351.04,-496.69 351.04,-505.98"/>
<polygon fill="black" stroke="black" points="347.54,-506.23 351.04,-516.23 354.54,-506.23 347.54,-506.23"/>
</g>
<!-- &#45;6143563774592373054 -->
<g id="node7" class="node">
<title>&#45;6143563774592373054</title>
<polygon fill="none" stroke="black" points="396.04,-133.09 342.04,-133.09 342.04,-97.09 396.04,-97.09 396.04,-133.09"/>
<text text-anchor="middle" x="369.04" y="-111.39" font-family="Helvetica,sans-Serif" font-size="14.00">(0, 1)</text>
</g>
<!-- &#45;6143563774592373054&#45;&gt;&#45;4178792271181666419 -->
<g id="edge5" class="edge">
<title>&#45;6143563774592373054&#45;&gt;&#45;4178792271181666419</title>
<path fill="none" stroke="black" d="M362.87,-133.51C359.56,-143.73 355.81,-156.98 354.04,-169.09 344.94,-231.49 346.63,-305.26 348.78,-347.55"/>
<polygon fill="black" stroke="black" points="345.29,-347.81 349.33,-357.6 352.28,-347.42 345.29,-347.81"/>
</g>
<!-- 8802181211074564618 -->
<g id="node22" class="node">
<title>8802181211074564618</title>
<ellipse fill="none" stroke="black" cx="403.04" cy="-209.39" rx="40.09" ry="40.09"/>
<text text-anchor="middle" x="403.04" y="-205.69" font-family="Helvetica,sans-Serif" font-size="14.00">getitem</text>
</g>
<!-- &#45;6143563774592373054&#45;&gt;8802181211074564618 -->
<g id="edge20" class="edge">
<title>&#45;6143563774592373054&#45;&gt;8802181211074564618</title>
<path fill="none" stroke="black" d="M375.44,-133.45C378.41,-141.53 382.11,-151.56 385.82,-161.63"/>
<polygon fill="black" stroke="black" points="382.61,-163.06 389.35,-171.23 389.18,-160.64 382.61,-163.06"/>
</g>
<!-- &#45;4792999154456461627 -->
<g id="node8" class="node">
<title>&#45;4792999154456461627</title>
<polygon fill="none" stroke="black" points="426.04,-321.69 372.04,-321.69 372.04,-285.69 426.04,-285.69 426.04,-321.69"/>
<text text-anchor="middle" x="399.04" y="-299.99" font-family="Helvetica,sans-Serif" font-size="14.00">(0, 1)</text>
</g>
<!-- &#45;4792999154456461627&#45;&gt;&#45;4178792271181666419 -->
<g id="edge6" class="edge">
<title>&#45;4792999154456461627&#45;&gt;&#45;4178792271181666419</title>
<path fill="none" stroke="black" d="M388.39,-321.85C382.84,-330.8 375.89,-342.01 369.49,-352.31"/>
<polygon fill="black" stroke="black" points="366.36,-350.72 364.06,-361.06 372.31,-354.41 366.36,-350.72"/>
</g>
<!-- 1392744716080680763 -->
<g id="node9" class="node">
<title>1392744716080680763</title>
<ellipse fill="none" stroke="black" cx="495.04" cy="-383.04" rx="25.2" ry="25.2"/>
<text text-anchor="middle" x="495.04" y="-379.34" font-family="Helvetica,sans-Serif" font-size="14.00">mul</text>
</g>
<!-- &#45;5449351535581779216 -->
<g id="node10" class="node">
<title>&#45;5449351535581779216</title>
<polygon fill="none" stroke="black" points="522.04,-480.38 468.04,-480.38 468.04,-444.38 522.04,-444.38 522.04,-480.38"/>
<text text-anchor="middle" x="495.04" y="-458.68" font-family="Helvetica,sans-Serif" font-size="14.00">(0, 2)</text>
</g>
<!-- 1392744716080680763&#45;&gt;&#45;5449351535581779216 -->
<g id="edge7" class="edge">
<title>1392744716080680763&#45;&gt;&#45;5449351535581779216</title>
<path fill="none" stroke="black" d="M495.04,-408.51C495.04,-416.51 495.04,-425.45 495.04,-433.67"/>
<polygon fill="black" stroke="black" points="491.54,-433.93 495.04,-443.93 498.54,-433.93 491.54,-433.93"/>
</g>
<!-- 7775297267211922626 -->
<g id="node29" class="node">
<title>7775297267211922626</title>
<ellipse fill="none" stroke="black" cx="495.04" cy="-579.43" rx="63.09" ry="63.09"/>
<text text-anchor="middle" x="495.04" y="-575.73" font-family="Helvetica,sans-Serif" font-size="14.00">mean_chunk</text>
</g>
<!-- &#45;5449351535581779216&#45;&gt;7775297267211922626 -->
<g id="edge30" class="edge">
<title>&#45;5449351535581779216&#45;&gt;7775297267211922626</title>
<path fill="none" stroke="black" d="M495.04,-480.86C495.04,-487.96 495.04,-496.69 495.04,-505.98"/>
<polygon fill="black" stroke="black" points="491.54,-506.23 495.04,-516.23 498.54,-506.23 491.54,-506.23"/>
</g>
<!-- 364076981509625371 -->
<g id="node11" class="node">
<title>364076981509625371</title>
<polygon fill="none" stroke="black" points="563.04,-133.09 509.04,-133.09 509.04,-97.09 563.04,-97.09 563.04,-133.09"/>
<text text-anchor="middle" x="536.04" y="-111.39" font-family="Helvetica,sans-Serif" font-size="14.00">(0, 2)</text>
</g>
<!-- 364076981509625371&#45;&gt;1392744716080680763 -->
<g id="edge8" class="edge">
<title>364076981509625371&#45;&gt;1392744716080680763</title>
<path fill="none" stroke="black" d="M542.28,-133.5C545.61,-143.72 549.36,-156.97 551.04,-169.09 555.97,-204.57 557.65,-214.48 551.04,-249.69 544.16,-286.38 526.19,-325.39 512.45,-351.48"/>
<polygon fill="black" stroke="black" points="509.27,-350.01 507.61,-360.47 515.43,-353.33 509.27,-350.01"/>
</g>
<!-- 8961219421620040138 -->
<g id="node23" class="node">
<title>8961219421620040138</title>
<ellipse fill="none" stroke="black" cx="502.04" cy="-209.39" rx="40.09" ry="40.09"/>
<text text-anchor="middle" x="502.04" y="-205.69" font-family="Helvetica,sans-Serif" font-size="14.00">getitem</text>
</g>
<!-- 364076981509625371&#45;&gt;8961219421620040138 -->
<g id="edge22" class="edge">
<title>364076981509625371&#45;&gt;8961219421620040138</title>
<path fill="none" stroke="black" d="M529.65,-133.45C526.68,-141.53 522.98,-151.56 519.27,-161.63"/>
<polygon fill="black" stroke="black" points="515.91,-160.64 515.73,-171.23 522.48,-163.06 515.91,-160.64"/>
</g>
<!-- 8760670890280393623 -->
<g id="node12" class="node">
<title>8760670890280393623</title>
<polygon fill="none" stroke="black" points="514.04,-321.69 460.04,-321.69 460.04,-285.69 514.04,-285.69 514.04,-321.69"/>
<text text-anchor="middle" x="487.04" y="-299.99" font-family="Helvetica,sans-Serif" font-size="14.00">(0, 2)</text>
</g>
<!-- 8760670890280393623&#45;&gt;1392744716080680763 -->
<g id="edge9" class="edge">
<title>8760670890280393623&#45;&gt;1392744716080680763</title>
<path fill="none" stroke="black" d="M488.82,-321.85C489.6,-329.4 490.55,-338.56 491.46,-347.42"/>
<polygon fill="black" stroke="black" points="488,-347.99 492.52,-357.58 494.97,-347.27 488,-347.99"/>
</g>
<!-- &#45;5176938761517151312 -->
<g id="node13" class="node">
<title>&#45;5176938761517151312</title>
<ellipse fill="none" stroke="black" cx="207.04" cy="-383.04" rx="25.2" ry="25.2"/>
<text text-anchor="middle" x="207.04" y="-379.34" font-family="Helvetica,sans-Serif" font-size="14.00">mul</text>
</g>
<!-- &#45;3340068162464148919 -->
<g id="node14" class="node">
<title>&#45;3340068162464148919</title>
<polygon fill="none" stroke="black" points="234.04,-480.38 180.04,-480.38 180.04,-444.38 234.04,-444.38 234.04,-480.38"/>
<text text-anchor="middle" x="207.04" y="-458.68" font-family="Helvetica,sans-Serif" font-size="14.00">(0, 3)</text>
</g>
<!-- &#45;5176938761517151312&#45;&gt;&#45;3340068162464148919 -->
<g id="edge10" class="edge">
<title>&#45;5176938761517151312&#45;&gt;&#45;3340068162464148919</title>
<path fill="none" stroke="black" d="M207.04,-408.51C207.04,-416.51 207.04,-425.45 207.04,-433.67"/>
<polygon fill="black" stroke="black" points="203.54,-433.93 207.04,-443.93 210.54,-433.93 203.54,-433.93"/>
</g>
<!-- 2143850601881886287 -->
<g id="node31" class="node">
<title>2143850601881886287</title>
<ellipse fill="none" stroke="black" cx="207.04" cy="-579.43" rx="63.09" ry="63.09"/>
<text text-anchor="middle" x="207.04" y="-575.73" font-family="Helvetica,sans-Serif" font-size="14.00">mean_chunk</text>
</g>
<!-- &#45;3340068162464148919&#45;&gt;2143850601881886287 -->
<g id="edge32" class="edge">
<title>&#45;3340068162464148919&#45;&gt;2143850601881886287</title>
<path fill="none" stroke="black" d="M207.04,-480.86C207.04,-487.96 207.04,-496.69 207.04,-505.98"/>
<polygon fill="black" stroke="black" points="203.54,-506.23 207.04,-516.23 210.54,-506.23 203.54,-506.23"/>
</g>
<!-- &#45;3178432427327159568 -->
<g id="node15" class="node">
<title>&#45;3178432427327159568</title>
<polygon fill="none" stroke="black" points="221.04,-321.69 167.04,-321.69 167.04,-285.69 221.04,-285.69 221.04,-321.69"/>
<text text-anchor="middle" x="194.04" y="-299.99" font-family="Helvetica,sans-Serif" font-size="14.00">(0, 3)</text>
</g>
<!-- &#45;3178432427327159568&#45;&gt;&#45;5176938761517151312 -->
<g id="edge11" class="edge">
<title>&#45;3178432427327159568&#45;&gt;&#45;5176938761517151312</title>
<path fill="none" stroke="black" d="M196.93,-321.85C198.22,-329.55 199.8,-338.91 201.31,-347.94"/>
<polygon fill="black" stroke="black" points="197.87,-348.6 202.98,-357.88 204.78,-347.43 197.87,-348.6"/>
</g>
<!-- &#45;4528997047463070995 -->
<g id="node16" class="node">
<title>&#45;4528997047463070995</title>
<polygon fill="none" stroke="black" points="273.04,-133.09 219.04,-133.09 219.04,-97.09 273.04,-97.09 273.04,-133.09"/>
<text text-anchor="middle" x="246.04" y="-111.39" font-family="Helvetica,sans-Serif" font-size="14.00">(0, 3)</text>
</g>
<!-- &#45;4528997047463070995&#45;&gt;&#45;5176938761517151312 -->
<g id="edge12" class="edge">
<title>&#45;4528997047463070995&#45;&gt;&#45;5176938761517151312</title>
<path fill="none" stroke="black" d="M252.28,-133.5C255.61,-143.72 259.36,-156.97 261.04,-169.09 265.97,-204.57 267.94,-214.54 261.04,-249.69 253.9,-286.12 236.66,-325.18 223.56,-351.35"/>
<polygon fill="black" stroke="black" points="220.39,-349.88 218.96,-360.37 226.62,-353.06 220.39,-349.88"/>
</g>
<!-- &#45;7803596545214093313 -->
<g id="node24" class="node">
<title>&#45;7803596545214093313</title>
<ellipse fill="none" stroke="black" cx="212.04" cy="-209.39" rx="40.09" ry="40.09"/>
<text text-anchor="middle" x="212.04" y="-205.69" font-family="Helvetica,sans-Serif" font-size="14.00">getitem</text>
</g>
<!-- &#45;4528997047463070995&#45;&gt;&#45;7803596545214093313 -->
<g id="edge24" class="edge">
<title>&#45;4528997047463070995&#45;&gt;&#45;7803596545214093313</title>
<path fill="none" stroke="black" d="M239.65,-133.45C236.68,-141.53 232.98,-151.56 229.27,-161.63"/>
<polygon fill="black" stroke="black" points="225.91,-160.64 225.73,-171.23 232.48,-163.06 225.91,-160.64"/>
</g>
<!-- 2276396984864510725 -->
<g id="node17" class="node">
<title>2276396984864510725</title>
<ellipse fill="none" stroke="black" cx="79.04" cy="-30.55" rx="30.59" ry="30.59"/>
<text text-anchor="middle" x="79.04" y="-26.85" font-family="Helvetica,sans-Serif" font-size="14.00">ones</text>
</g>
<!-- 2276396984864510725&#45;&gt;3147867637364691440 -->
<g id="edge13" class="edge">
<title>2276396984864510725&#45;&gt;3147867637364691440</title>
<path fill="none" stroke="black" d="M79.04,-61.35C79.04,-69.7 79.04,-78.73 79.04,-86.91"/>
<polygon fill="black" stroke="black" points="75.54,-87.07 79.04,-97.07 82.54,-87.07 75.54,-87.07"/>
</g>
<!-- &#45;4491017625215632620 -->
<g id="node18" class="node">
<title>&#45;4491017625215632620</title>
<ellipse fill="none" stroke="black" cx="369.04" cy="-30.55" rx="30.59" ry="30.59"/>
<text text-anchor="middle" x="369.04" y="-26.85" font-family="Helvetica,sans-Serif" font-size="14.00">ones</text>
</g>
<!-- &#45;4491017625215632620&#45;&gt;&#45;6143563774592373054 -->
<g id="edge14" class="edge">
<title>&#45;4491017625215632620&#45;&gt;&#45;6143563774592373054</title>
<path fill="none" stroke="black" d="M369.04,-61.35C369.04,-69.7 369.04,-78.73 369.04,-86.91"/>
<polygon fill="black" stroke="black" points="365.54,-87.07 369.04,-97.07 372.54,-87.07 365.54,-87.07"/>
</g>
<!-- 8324279783163882657 -->
<g id="node19" class="node">
<title>8324279783163882657</title>
<ellipse fill="none" stroke="black" cx="536.04" cy="-30.55" rx="30.59" ry="30.59"/>
<text text-anchor="middle" x="536.04" y="-26.85" font-family="Helvetica,sans-Serif" font-size="14.00">ones</text>
</g>
<!-- 8324279783163882657&#45;&gt;364076981509625371 -->
<g id="edge15" class="edge">
<title>8324279783163882657&#45;&gt;364076981509625371</title>
<path fill="none" stroke="black" d="M536.04,-61.35C536.04,-69.7 536.04,-78.73 536.04,-86.91"/>
<polygon fill="black" stroke="black" points="532.54,-87.07 536.04,-97.07 539.54,-87.07 532.54,-87.07"/>
</g>
<!-- &#45;5883145118106776351 -->
<g id="node20" class="node">
<title>&#45;5883145118106776351</title>
<ellipse fill="none" stroke="black" cx="246.04" cy="-30.55" rx="30.59" ry="30.59"/>
<text text-anchor="middle" x="246.04" y="-26.85" font-family="Helvetica,sans-Serif" font-size="14.00">ones</text>
</g>
<!-- &#45;5883145118106776351&#45;&gt;&#45;4528997047463070995 -->
<g id="edge16" class="edge">
<title>&#45;5883145118106776351&#45;&gt;&#45;4528997047463070995</title>
<path fill="none" stroke="black" d="M246.04,-61.35C246.04,-69.7 246.04,-78.73 246.04,-86.91"/>
<polygon fill="black" stroke="black" points="242.54,-87.07 246.04,-97.07 249.54,-87.07 242.54,-87.07"/>
</g>
<!-- 3170734545744528279&#45;&gt;&#45;3178432427327159568 -->
<g id="edge17" class="edge">
<title>3170734545744528279&#45;&gt;&#45;3178432427327159568</title>
<path fill="none" stroke="black" d="M139.34,-240.36C150,-252.5 162.16,-266.36 172.31,-277.92"/>
<polygon fill="black" stroke="black" points="169.74,-280.3 178.97,-285.51 175,-275.68 169.74,-280.3"/>
</g>
<!-- 8802181211074564618&#45;&gt;8760670890280393623 -->
<g id="edge19" class="edge">
<title>8802181211074564618&#45;&gt;8760670890280393623</title>
<path fill="none" stroke="black" d="M429.85,-239.85C441.01,-252.11 453.82,-266.18 464.49,-277.9"/>
<polygon fill="black" stroke="black" points="462.16,-280.54 471.48,-285.58 467.34,-275.83 462.16,-280.54"/>
</g>
<!-- 8961219421620040138&#45;&gt;&#45;4792999154456461627 -->
<g id="edge21" class="edge">
<title>8961219421620040138&#45;&gt;&#45;4792999154456461627</title>
<path fill="none" stroke="black" d="M472.53,-236.84C457.78,-250.05 440.08,-265.92 425.74,-278.77"/>
<polygon fill="black" stroke="black" points="423.27,-276.28 418.16,-285.56 427.94,-281.49 423.27,-276.28"/>
</g>
<!-- &#45;7803596545214093313&#45;&gt;&#45;6902282527574091924 -->
<g id="edge23" class="edge">
<title>&#45;7803596545214093313&#45;&gt;&#45;6902282527574091924</title>
<path fill="none" stroke="black" d="M183.17,-237.58C169.39,-250.56 153.04,-265.96 139.7,-278.53"/>
<polygon fill="black" stroke="black" points="137.11,-276.15 132.23,-285.56 141.91,-281.25 137.11,-276.15"/>
</g>
<!-- &#45;7588631079908678620 -->
<g id="node26" class="node">
<title>&#45;7588631079908678620</title>
<polygon fill="none" stroke="black" points="196.04,-714.47 142.04,-714.47 142.04,-678.47 196.04,-678.47 196.04,-714.47"/>
<text text-anchor="middle" x="169.04" y="-692.77" font-family="Helvetica,sans-Serif" font-size="14.00">(0, 0)</text>
</g>
<!-- &#45;8830480489076735305&#45;&gt;&#45;7588631079908678620 -->
<g id="edge25" class="edge">
<title>&#45;8830480489076735305&#45;&gt;&#45;7588631079908678620</title>
<path fill="none" stroke="black" d="M105.55,-626.56C119.48,-641.67 134.41,-657.88 146.3,-670.78"/>
<polygon fill="black" stroke="black" points="143.91,-673.36 153.26,-678.35 149.06,-668.62 143.91,-673.36"/>
</g>
<!-- 427615356947228306 -->
<g id="node33" class="node">
<title>427615356947228306</title>
<ellipse fill="none" stroke="black" cx="222.04" cy="-851.21" rx="100.98" ry="100.98"/>
<text text-anchor="middle" x="222.04" y="-847.51" font-family="Helvetica,sans-Serif" font-size="14.00">mean_combine&#45;partial</text>
</g>
<!-- &#45;7588631079908678620&#45;&gt;427615356947228306 -->
<g id="edge34" class="edge">
<title>&#45;7588631079908678620&#45;&gt;427615356947228306</title>
<path fill="none" stroke="black" d="M175.02,-714.7C177.95,-723.13 181.73,-734.04 185.89,-746.01"/>
<polygon fill="black" stroke="black" points="182.7,-747.51 189.29,-755.81 189.32,-745.22 182.7,-747.51"/>
</g>
<!-- &#45;1080990323806680195 -->
<g id="node28" class="node">
<title>&#45;1080990323806680195</title>
<polygon fill="none" stroke="black" points="309.04,-714.47 255.04,-714.47 255.04,-678.47 309.04,-678.47 309.04,-714.47"/>
<text text-anchor="middle" x="282.04" y="-692.77" font-family="Helvetica,sans-Serif" font-size="14.00">(0, 1)</text>
</g>
<!-- &#45;8302389579401853773&#45;&gt;&#45;1080990323806680195 -->
<g id="edge27" class="edge">
<title>&#45;8302389579401853773&#45;&gt;&#45;1080990323806680195</title>
<path fill="none" stroke="black" d="M318.97,-633.91C311.51,-646.34 303.9,-659.03 297.54,-669.63"/>
<polygon fill="black" stroke="black" points="294.45,-667.98 292.31,-678.35 300.46,-671.58 294.45,-667.98"/>
</g>
<!-- &#45;1080990323806680195&#45;&gt;427615356947228306 -->
<g id="edge35" class="edge">
<title>&#45;1080990323806680195&#45;&gt;427615356947228306</title>
<path fill="none" stroke="black" d="M275.28,-714.7C271.8,-723.55 267.25,-735.13 262.27,-747.8"/>
<polygon fill="black" stroke="black" points="258.98,-746.61 258.58,-757.2 265.5,-749.17 258.98,-746.61"/>
</g>
<!-- 8074322337945806927 -->
<g id="node30" class="node">
<title>8074322337945806927</title>
<polygon fill="none" stroke="black" points="495.04,-714.47 441.04,-714.47 441.04,-678.47 495.04,-678.47 495.04,-714.47"/>
<text text-anchor="middle" x="468.04" y="-692.77" font-family="Helvetica,sans-Serif" font-size="14.00">(0, 2)</text>
</g>
<!-- 7775297267211922626&#45;&gt;8074322337945806927 -->
<g id="edge29" class="edge">
<title>7775297267211922626&#45;&gt;8074322337945806927</title>
<path fill="none" stroke="black" d="M480.83,-640.98C478.58,-650.57 476.36,-660.05 474.41,-668.35"/>
<polygon fill="black" stroke="black" points="470.99,-667.61 472.11,-678.14 477.8,-669.21 470.99,-667.61"/>
</g>
<!-- 4666934529386120914 -->
<g id="node35" class="node">
<title>4666934529386120914</title>
<ellipse fill="none" stroke="black" cx="441.04" cy="-851.21" rx="100.98" ry="100.98"/>
<text text-anchor="middle" x="441.04" y="-847.51" font-family="Helvetica,sans-Serif" font-size="14.00">mean_combine&#45;partial</text>
</g>
<!-- 8074322337945806927&#45;&gt;4666934529386120914 -->
<g id="edge38" class="edge">
<title>8074322337945806927&#45;&gt;4666934529386120914</title>
<path fill="none" stroke="black" d="M465,-714.7C463.69,-722.09 462.05,-731.38 460.24,-741.62"/>
<polygon fill="black" stroke="black" points="456.75,-741.24 458.46,-751.7 463.65,-742.46 456.75,-741.24"/>
</g>
<!-- &#45;3864780979661746264 -->
<g id="node32" class="node">
<title>&#45;3864780979661746264</title>
<polygon fill="none" stroke="black" points="409.04,-714.47 355.04,-714.47 355.04,-678.47 409.04,-678.47 409.04,-714.47"/>
<text text-anchor="middle" x="382.04" y="-692.77" font-family="Helvetica,sans-Serif" font-size="14.00">(0, 3)</text>
</g>
<!-- 2143850601881886287&#45;&gt;&#45;3864780979661746264 -->
<g id="edge31" class="edge">
<title>2143850601881886287&#45;&gt;&#45;3864780979661746264</title>
<path fill="none" stroke="black" d="M253.02,-622.81C261.41,-629.74 270.29,-636.57 279.04,-642.47 300.06,-656.64 325.35,-669.71 345.61,-679.32"/>
<polygon fill="black" stroke="black" points="344.28,-682.56 354.82,-683.62 347.24,-676.22 344.28,-682.56"/>
</g>
<!-- &#45;3864780979661746264&#45;&gt;4666934529386120914 -->
<g id="edge37" class="edge">
<title>&#45;3864780979661746264&#45;&gt;4666934529386120914</title>
<path fill="none" stroke="black" d="M388.7,-714.7C392.06,-723.4 396.44,-734.75 401.24,-747.17"/>
<polygon fill="black" stroke="black" points="398.11,-748.78 404.98,-756.85 404.64,-746.26 398.11,-748.78"/>
</g>
<!-- 5301849779866643166 -->
<g id="node34" class="node">
<title>5301849779866643166</title>
<polygon fill="none" stroke="black" points="322.04,-1023.95 268.04,-1023.95 268.04,-987.95 322.04,-987.95 322.04,-1023.95"/>
<text text-anchor="middle" x="295.04" y="-1002.25" font-family="Helvetica,sans-Serif" font-size="14.00">(0, 0)</text>
</g>
<!-- 427615356947228306&#45;&gt;5301849779866643166 -->
<g id="edge33" class="edge">
<title>427615356947228306&#45;&gt;5301849779866643166</title>
<path fill="none" stroke="black" d="M265.14,-942.39C271.46,-955.6 277.5,-968.25 282.48,-978.67"/>
<polygon fill="black" stroke="black" points="279.43,-980.41 286.9,-987.92 285.75,-977.39 279.43,-980.41"/>
</g>
<!-- &#45;5623841046681078755 -->
<g id="node37" class="node">
<title>&#45;5623841046681078755</title>
<ellipse fill="none" stroke="black" cx="331.04" cy="-1157.45" rx="97.48" ry="97.48"/>
<text text-anchor="middle" x="331.04" y="-1153.75" font-family="Helvetica,sans-Serif" font-size="14.00">mean_agg&#45;aggregate</text>
</g>
<!-- 5301849779866643166&#45;&gt;&#45;5623841046681078755 -->
<g id="edge41" class="edge">
<title>5301849779866643166&#45;&gt;&#45;5623841046681078755</title>
<path fill="none" stroke="black" d="M299.17,-1024.1C301.05,-1031.87 303.42,-1041.75 306.04,-1052.6"/>
<polygon fill="black" stroke="black" points="302.64,-1053.45 308.38,-1062.35 309.45,-1051.81 302.64,-1053.45"/>
</g>
<!-- 408775750893946800 -->
<g id="node36" class="node">
<title>408775750893946800</title>
<polygon fill="none" stroke="black" points="431.04,-1023.95 377.04,-1023.95 377.04,-987.95 431.04,-987.95 431.04,-1023.95"/>
<text text-anchor="middle" x="404.04" y="-1002.25" font-family="Helvetica,sans-Serif" font-size="14.00">(0, 1)</text>
</g>
<!-- 4666934529386120914&#45;&gt;408775750893946800 -->
<g id="edge36" class="edge">
<title>4666934529386120914&#45;&gt;408775750893946800</title>
<path fill="none" stroke="black" d="M417.51,-949.38C415.02,-959.64 412.67,-969.36 410.64,-977.71"/>
<polygon fill="black" stroke="black" points="407.22,-976.96 408.27,-987.5 414.03,-978.61 407.22,-976.96"/>
</g>
<!-- 408775750893946800&#45;&gt;&#45;5623841046681078755 -->
<g id="edge40" class="edge">
<title>408775750893946800&#45;&gt;&#45;5623841046681078755</title>
<path fill="none" stroke="black" d="M395.67,-1024.1C391,-1033.67 384.77,-1046.42 378.02,-1060.24"/>
<polygon fill="black" stroke="black" points="374.77,-1058.94 373.52,-1069.46 381.06,-1062.01 374.77,-1058.94"/>
</g>
<!-- 7821938005542804336 -->
<g id="node38" class="node">
<title>7821938005542804336</title>
<polygon fill="none" stroke="black" points="358.04,-1326.94 304.04,-1326.94 304.04,-1290.94 358.04,-1290.94 358.04,-1326.94"/>
<text text-anchor="middle" x="331.04" y="-1305.24" font-family="Helvetica,sans-Serif" font-size="14.00">()</text>
</g>
<!-- &#45;5623841046681078755&#45;&gt;7821938005542804336 -->
<g id="edge39" class="edge">
<title>&#45;5623841046681078755&#45;&gt;7821938005542804336</title>
<path fill="none" stroke="black" d="M331.04,-1255.23C331.04,-1264.28 331.04,-1272.86 331.04,-1280.37"/>
<polygon fill="black" stroke="black" points="327.54,-1280.52 331.04,-1290.52 334.54,-1280.52 327.54,-1280.52"/>
</g>
</g>
</svg>
